<mxfile host="app.diagrams.net" agent="Mozilla/5.0 (Macintosh; Intel Mac OS X 10_15_7) AppleWebKit/537.36 (KHTML, like Gecko) Chrome/129.0.0.0 Safari/537.36" version="24.7.17">
  <diagram name="第 1 页" id="3sD-NM4lYeUQN5KGjvz1">
    <mxGraphModel dx="1040" dy="743" grid="1" gridSize="10" guides="1" tooltips="1" connect="1" arrows="1" fold="1" page="1" pageScale="1" pageWidth="827" pageHeight="1169" math="1" shadow="0">
      <root>
        <mxCell id="0" />
        <mxCell id="1" parent="0" />
        <mxCell id="KOQEC29z0c_paSgfUxHk-1" value="" style="rounded=1;whiteSpace=wrap;html=1;arcSize=3;align=center;labelPosition=center;verticalLabelPosition=middle;verticalAlign=middle;fillColor=none;strokeColor=#6c8ebf;strokeWidth=2;fontFamily=Times New Roman;fontSize=20;" parent="1" vertex="1">
          <mxGeometry x="40" y="40" width="600" height="630" as="geometry" />
        </mxCell>
        <mxCell id="-NQA6i-HL0SkwBARae_o-7" value="&lt;font style=&quot;font-size: 18px;&quot;&gt;$$-\frac{1}{8}\left(\sinh\left(\cosh^{-1} \left(7-\frac{x}{-8}\right)\right)\right)^{-1}$$&lt;/font&gt;" style="text;html=1;align=left;verticalAlign=middle;whiteSpace=wrap;rounded=0;fontFamily=Times New Roman;fontSize=18;" parent="1" vertex="1">
          <mxGeometry x="140" y="110" width="315" height="50" as="geometry" />
        </mxCell>
        <mxCell id="-NQA6i-HL0SkwBARae_o-8" value="&lt;font style=&quot;font-size: 18px;&quot;&gt;$$-\frac{1}{8}\left(\sinh \left(\cosh^{-1}\left(7-x\frac{1}{-8} \right)\right)\right)^{-1}$$&lt;/font&gt;" style="text;html=1;align=left;verticalAlign=middle;whiteSpace=wrap;rounded=0;fontFamily=Times New Roman;fontSize=18;" parent="1" vertex="1">
          <mxGeometry x="140" y="160" width="330" height="50" as="geometry" />
        </mxCell>
        <mxCell id="-NQA6i-HL0SkwBARae_o-9" value="&lt;font face=&quot;Times New Roman&quot; style=&quot;font-size: 18px;&quot;&gt;$$-\frac{1}{8}\left(\sinh\left(\cosh^{-1} \left(7-\frac{1}{-8}x\right)\right)\right)^{-1}$$&lt;/font&gt;" style="text;html=1;align=left;verticalAlign=middle;whiteSpace=wrap;rounded=0;fontFamily=Times New Roman;fontSize=18;" parent="1" vertex="1">
          <mxGeometry x="140" y="210" width="300" height="50" as="geometry" />
        </mxCell>
        <mxCell id="-NQA6i-HL0SkwBARae_o-10" value="&lt;font style=&quot;font-size: 18px;&quot; face=&quot;Times New Roman&quot;&gt;$$-\frac{1}{8}\left(\sinh\left(\cosh^{-1} \left(7+\frac{x}{8}\right)\right)\right)^{-1}$$&lt;/font&gt;" style="text;html=1;align=left;verticalAlign=middle;whiteSpace=wrap;rounded=0;fontFamily=Times New Roman;fontSize=18;" parent="1" vertex="1">
          <mxGeometry x="140" y="260" width="260" height="50" as="geometry" />
        </mxCell>
        <mxCell id="-NQA6i-HL0SkwBARae_o-11" value="$$-\frac{1}{8}\left(\sqrt{6+\frac{x}{8}}\sqrt{8+\frac{x}{8}} \right)^{-1}$$" style="text;html=1;align=left;verticalAlign=middle;whiteSpace=wrap;rounded=0;fontFamily=Times New Roman;fontSize=18;" parent="1" vertex="1">
          <mxGeometry x="140" y="310" width="220" height="50" as="geometry" />
        </mxCell>
        <mxCell id="-NQA6i-HL0SkwBARae_o-12" value="$$-1\times\frac{1}{8}\left(6+\frac{x}{8}\right)^{-\frac{1}{2}}\left(8+\frac{x}{8}\right)^{-\frac{1}{2}}$$" style="text;align=left;verticalAlign=middle;rounded=0;whiteSpace=wrap;html=1;fontFamily=Times New Roman;fontSize=18;" parent="1" vertex="1">
          <mxGeometry x="140" y="360" width="255" height="50" as="geometry" />
        </mxCell>
        <mxCell id="-NQA6i-HL0SkwBARae_o-13" value="&lt;font style=&quot;font-size: 18px;&quot;&gt;$$-\frac{1}{8}\left(6+\frac{x}{8}\right)^{-\frac{1}{2}}(8+\textcolor{red}{(1-8)}x)^{-\frac{1}{2}}$$&lt;/font&gt;" style="text;align=left;verticalAlign=middle;rounded=0;whiteSpace=wrap;html=1;fontFamily=Times New Roman;fontSize=18;" parent="1" vertex="1">
          <mxGeometry x="140" y="410" width="265" height="50" as="geometry" />
        </mxCell>
        <mxCell id="-NQA6i-HL0SkwBARae_o-14" value="$$\frac{-1}{8}\left(6+\frac{x}{8}\right)^{-\frac{1}{2}}(8+(1-8)x) ^{-\frac{1}{2}}$$" style="text;html=1;align=left;verticalAlign=middle;whiteSpace=wrap;rounded=0;fontFamily=Times New Roman;fontSize=18;" parent="1" vertex="1">
          <mxGeometry x="140" y="460" width="260" height="50" as="geometry" />
        </mxCell>
        <mxCell id="-NQA6i-HL0SkwBARae_o-15" value="$$\frac{-1}{8}\left(6+\frac{x}{8}\right)^{-\frac{1}{2}}(8+(1+(-8))x) ^{-\frac{1}{2}}$$" style="text;html=1;align=left;verticalAlign=middle;whiteSpace=wrap;rounded=0;fontFamily=Times New Roman;fontSize=18;" parent="1" vertex="1">
          <mxGeometry x="140" y="510" width="290" height="50" as="geometry" />
        </mxCell>
        <mxCell id="-NQA6i-HL0SkwBARae_o-16" value="$$\frac{-1}{8}\left(6+\frac{x}{8}\right)^{-\frac{1}{2}}(8+(-7)x) ^{-\frac{1}{2}}$$" style="text;html=1;align=left;verticalAlign=middle;whiteSpace=wrap;rounded=0;fontFamily=Times New Roman;fontSize=18;" parent="1" vertex="1">
          <mxGeometry x="140" y="560" width="245" height="50" as="geometry" />
        </mxCell>
        <mxCell id="-NQA6i-HL0SkwBARae_o-17" value="$$\frac{-1}{8}\left(6+\frac{x}{8}\right)^{-\frac{1}{2}}(8-7x) ^{-\frac{1}{2}}$$" style="text;html=1;align=left;verticalAlign=middle;whiteSpace=wrap;rounded=0;fontFamily=Times New Roman;fontSize=18;" parent="1" vertex="1">
          <mxGeometry x="140" y="610" width="215" height="50" as="geometry" />
        </mxCell>
        <mxCell id="-NQA6i-HL0SkwBARae_o-29" value="&lt;div style=&quot;text-align: justify;&quot;&gt;&lt;span style=&quot;background-color: initial;&quot;&gt;&lt;font style=&quot;font-size: 18px;&quot;&gt;I will give you mathematical derivation steps, try to find out all possible mistakes in it&lt;/font&gt;&lt;/span&gt;&lt;/div&gt;" style="text;align=center;verticalAlign=middle;rounded=0;fontSize=16;fontFamily=Times New Roman;html=1;whiteSpace=wrap;" parent="1" vertex="1">
          <mxGeometry x="60" y="60" width="560" height="40" as="geometry" />
        </mxCell>
        <mxCell id="-NQA6i-HL0SkwBARae_o-49" value="" style="rounded=1;whiteSpace=wrap;html=1;arcSize=3;fillColor=none;strokeColor=#82b366;strokeWidth=2;" parent="1" vertex="1">
          <mxGeometry x="40" y="700" width="600" height="380" as="geometry" />
        </mxCell>
        <mxCell id="K6epjHdqJ8vMH0IBgyUz-11" value="Step 1:" style="text;align=center;verticalAlign=middle;rounded=0;whiteSpace=wrap;html=1;fontFamily=Times New Roman;fontSize=18;fontStyle=0" parent="1" vertex="1">
          <mxGeometry x="60" y="110" width="70" height="50" as="geometry" />
        </mxCell>
        <mxCell id="EKH504KgsZV1hxPVgfRo-1" value="&lt;font face=&quot;Times New Roman&quot; style=&quot;font-size: 20px;&quot;&gt;Question&lt;/font&gt;" style="rounded=1;whiteSpace=wrap;html=1;arcSize=50;strokeWidth=2;fillColor=default;strokeColor=#6c8ebf;" parent="1" vertex="1">
          <mxGeometry x="240" y="27" width="200" height="26" as="geometry" />
        </mxCell>
        <mxCell id="B_Zu465-rlCwCi7KC1ga-1" value="&lt;div style=&quot;&quot;&gt;&lt;span style=&quot;background-color: initial;&quot;&gt;&lt;font style=&quot;font-size: 20px;&quot;&gt;GPT-4o Response&lt;/font&gt;&lt;/span&gt;&lt;/div&gt;" style="rounded=1;whiteSpace=wrap;html=1;arcSize=50;fontFamily=Times New Roman;fontSize=23;align=center;strokeWidth=2;fillColor=default;strokeColor=#82b366;" vertex="1" parent="1">
          <mxGeometry x="240" y="687" width="200" height="26" as="geometry" />
        </mxCell>
        <mxCell id="B_Zu465-rlCwCi7KC1ga-5" value="&lt;div style=&quot;font-size: 18px;&quot;&gt;&lt;font face=&quot;Times New Roman&quot; style=&quot;font-size: 18px;&quot;&gt;Here&#39;s a brief summary of the mistakes:&lt;/font&gt;&lt;/div&gt;&lt;div style=&quot;font-size: 18px;&quot;&gt;&lt;font face=&quot;NhLP7qpvYWU2xE_UYgt3&quot; style=&quot;font-size: 18px;&quot;&gt;&lt;b style=&quot;&quot;&gt;Step 5&lt;/b&gt;: The transition from \(\sinh(\cosh^{-1} ...)\) to \(\sqrt{6+\frac{x}{8} }\) and \(\sqrt{8+\frac{x}{8} }\) is incorrect.&lt;/font&gt;&lt;/div&gt;&lt;div style=&quot;font-size: 18px;&quot;&gt;&lt;font face=&quot;NhLP7qpvYWU2xE_UYgt3&quot; style=&quot;font-size: 18px;&quot;&gt;The substitution does not properly follow the hyperbolic identity. It seems like you&#39;re&lt;/font&gt;&lt;/div&gt;&lt;div style=&quot;font-size: 18px;&quot;&gt;&lt;font face=&quot;NhLP7qpvYWU2xE_UYgt3&quot; style=&quot;font-size: 18px;&quot;&gt;jumping from hyperbolic to standard square root expressions without justification.&lt;/font&gt;&lt;/div&gt;&lt;div style=&quot;font-size: 18px;&quot;&gt;&lt;font face=&quot;NhLP7qpvYWU2xE_UYgt3&quot; style=&quot;font-size: 18px;&quot;&gt;&lt;b style=&quot;&quot;&gt;Step 7&lt;/b&gt;: There&#39;s a mistake in the expression \((8)+(1-8)x\), which simplifies to \((8)-(7)x\), but the transition introduced incorrect operations leading to errors in simplification.&lt;/font&gt;&lt;/div&gt;&lt;div style=&quot;font-size: 18px;&quot;&gt;&lt;font face=&quot;NhLP7qpvYWU2xE_UYgt3&quot; style=&quot;font-size: 18px;&quot;&gt;&lt;b style=&quot;&quot;&gt;Step 9&lt;/b&gt;: Same issue persists with \((8)+(1+(-8))x\), simplifying this should have led to \((-7x)\), but it’s repeated without any changes.&lt;/font&gt;&lt;/div&gt;&lt;div style=&quot;font-size: 18px;&quot;&gt;&lt;font face=&quot;NhLP7qpvYWU2xE_UYgt3&quot; style=&quot;font-size: 18px;&quot;&gt;The primary issue occurs when transitioning from hyperbolic trigonometric functions in steps 4–5. The correct path should have kept the form involving \(\sinh(\cosh^{-1})\) or transformed more systematically into algebraic terms.&lt;/font&gt;&lt;/div&gt;" style="text;html=1;align=left;verticalAlign=middle;whiteSpace=wrap;rounded=0;fontFamily=Times New Roman;" vertex="1" parent="1">
          <mxGeometry x="60" y="720" width="560" height="340" as="geometry" />
        </mxCell>
        <mxCell id="B_Zu465-rlCwCi7KC1ga-6" value="Step 11:" style="text;align=center;verticalAlign=middle;rounded=0;whiteSpace=wrap;html=1;fontFamily=Times New Roman;fontSize=18;fontStyle=0" vertex="1" parent="1">
          <mxGeometry x="64" y="610" width="70" height="50" as="geometry" />
        </mxCell>
        <mxCell id="B_Zu465-rlCwCi7KC1ga-7" value="Step 10:" style="text;align=center;verticalAlign=middle;rounded=0;whiteSpace=wrap;html=1;fontFamily=Times New Roman;fontSize=18;fontStyle=0" vertex="1" parent="1">
          <mxGeometry x="64" y="560" width="70" height="50" as="geometry" />
        </mxCell>
        <mxCell id="B_Zu465-rlCwCi7KC1ga-8" value="Step 9:" style="text;align=center;verticalAlign=middle;rounded=0;whiteSpace=wrap;html=1;fontFamily=Times New Roman;fontSize=18;fontStyle=0" vertex="1" parent="1">
          <mxGeometry x="60" y="510" width="70" height="50" as="geometry" />
        </mxCell>
        <mxCell id="B_Zu465-rlCwCi7KC1ga-9" value="Step 8:" style="text;align=center;verticalAlign=middle;rounded=0;whiteSpace=wrap;html=1;fontFamily=Times New Roman;fontSize=18;fontStyle=0" vertex="1" parent="1">
          <mxGeometry x="60" y="460" width="70" height="50" as="geometry" />
        </mxCell>
        <mxCell id="B_Zu465-rlCwCi7KC1ga-10" value="Step 7:" style="text;align=center;verticalAlign=middle;rounded=0;whiteSpace=wrap;html=1;fontFamily=Times New Roman;fontSize=18;fontStyle=0" vertex="1" parent="1">
          <mxGeometry x="60" y="410" width="70" height="50" as="geometry" />
        </mxCell>
        <mxCell id="B_Zu465-rlCwCi7KC1ga-11" value="Step 6:" style="text;align=center;verticalAlign=middle;rounded=0;whiteSpace=wrap;html=1;fontFamily=Times New Roman;fontSize=18;fontStyle=0" vertex="1" parent="1">
          <mxGeometry x="60" y="360" width="70" height="50" as="geometry" />
        </mxCell>
        <mxCell id="B_Zu465-rlCwCi7KC1ga-12" value="Step 5:" style="text;align=center;verticalAlign=middle;rounded=0;whiteSpace=wrap;html=1;fontFamily=Times New Roman;fontSize=18;fontStyle=0" vertex="1" parent="1">
          <mxGeometry x="60" y="310" width="70" height="50" as="geometry" />
        </mxCell>
        <mxCell id="B_Zu465-rlCwCi7KC1ga-13" value="Step 4:" style="text;align=center;verticalAlign=middle;rounded=0;whiteSpace=wrap;html=1;fontFamily=Times New Roman;fontSize=18;fontStyle=0" vertex="1" parent="1">
          <mxGeometry x="60" y="260" width="70" height="50" as="geometry" />
        </mxCell>
        <mxCell id="B_Zu465-rlCwCi7KC1ga-14" value="Step 3:" style="text;align=center;verticalAlign=middle;rounded=0;whiteSpace=wrap;html=1;fontFamily=Times New Roman;fontSize=18;fontStyle=0" vertex="1" parent="1">
          <mxGeometry x="60" y="210" width="70" height="50" as="geometry" />
        </mxCell>
        <mxCell id="B_Zu465-rlCwCi7KC1ga-15" value="Step 2:" style="text;align=center;verticalAlign=middle;rounded=0;whiteSpace=wrap;html=1;fontFamily=Times New Roman;fontSize=18;fontStyle=0" vertex="1" parent="1">
          <mxGeometry x="60" y="160" width="70" height="50" as="geometry" />
        </mxCell>
        <mxCell id="B_Zu465-rlCwCi7KC1ga-16" value="" style="rounded=1;whiteSpace=wrap;html=1;arcSize=3;align=center;labelPosition=center;verticalLabelPosition=middle;verticalAlign=middle;fillColor=none;strokeColor=#6c8ebf;strokeWidth=2;fontFamily=Times New Roman;fontSize=20;" vertex="1" parent="1">
          <mxGeometry x="670" y="40" width="600" height="630" as="geometry" />
        </mxCell>
        <mxCell id="B_Zu465-rlCwCi7KC1ga-17" value="$$\frac{5}{\csc(\csc^{-1}(\frac{1}{\ln (\frac{x}{-5} )}))}&lt;br&gt;$$" style="text;align=left;verticalAlign=middle;rounded=0;fontFamily=Times New Roman;fontSize=18;whiteSpace=wrap;html=1;" vertex="1" parent="1">
          <mxGeometry x="760" y="110" width="150" height="55" as="geometry" />
        </mxCell>
        <mxCell id="B_Zu465-rlCwCi7KC1ga-18" value="&lt;font style=&quot;font-size: 18px;&quot;&gt;$$\frac{5}{\csc(\csc^{-1}(\frac{1}{\ln (x\frac{1}{-5} )}))}$$&lt;/font&gt;" style="text;html=1;align=left;verticalAlign=middle;whiteSpace=wrap;rounded=0;fontFamily=Times New Roman;fontSize=18;" vertex="1" parent="1">
          <mxGeometry x="760" y="165" width="160" height="55" as="geometry" />
        </mxCell>
        <mxCell id="B_Zu465-rlCwCi7KC1ga-19" value="$$\frac{5}{\csc(\csc^{-1}(\frac{1}{\ln (\frac{1}{-5}x )}))}$$" style="text;align=left;verticalAlign=middle;rounded=0;fontFamily=Times New Roman;fontSize=18;html=1;whiteSpace=wrap;" vertex="1" parent="1">
          <mxGeometry x="760" y="220" width="160" height="55" as="geometry" />
        </mxCell>
        <mxCell id="B_Zu465-rlCwCi7KC1ga-20" value="$$\frac{5}{\textcolor{red}{\sec}(\csc^{-1}((\ln (\frac{1}{-5}x ))^{-1}))}$$" style="text;align=left;verticalAlign=middle;rounded=0;fontFamily=Times New Roman;fontSize=18;whiteSpace=wrap;html=1;" vertex="1" parent="1">
          <mxGeometry x="760" y="275" width="200" height="55" as="geometry" />
        </mxCell>
        <mxCell id="B_Zu465-rlCwCi7KC1ga-21" value="$$\frac{5}{1-((\ln(\frac{1}{-5}x ))^{2})^{-\frac{1}{2} }}$$" style="text;align=left;verticalAlign=middle;rounded=0;fontFamily=Times New Roman;fontSize=18;whiteSpace=wrap;html=1;" vertex="1" parent="1">
          <mxGeometry x="760" y="330" width="170" height="55" as="geometry" />
        </mxCell>
        <mxCell id="B_Zu465-rlCwCi7KC1ga-22" value="$$5\sqrt[]{1-(\ln (\frac{-1}{5}x ))^{2}}$$" style="text;align=left;verticalAlign=middle;rounded=0;fontFamily=Times New Roman;fontSize=18;whiteSpace=wrap;html=1;" vertex="1" parent="1">
          <mxGeometry x="760" y="385" width="160" height="55" as="geometry" />
        </mxCell>
        <mxCell id="B_Zu465-rlCwCi7KC1ga-23" value="&lt;div style=&quot;text-align: justify;&quot;&gt;&lt;span style=&quot;background-color: initial;&quot;&gt;&lt;font style=&quot;font-size: 18px;&quot;&gt;I will give you mathematical derivation steps, try to find out all possible mistakes in it&lt;/font&gt;&lt;/span&gt;&lt;/div&gt;" style="text;align=center;verticalAlign=middle;rounded=0;fontSize=16;fontFamily=Times New Roman;html=1;whiteSpace=wrap;" vertex="1" parent="1">
          <mxGeometry x="690" y="60" width="560" height="40" as="geometry" />
        </mxCell>
        <mxCell id="B_Zu465-rlCwCi7KC1ga-24" value="" style="rounded=1;whiteSpace=wrap;html=1;arcSize=3;fillColor=none;strokeColor=#82b366;strokeWidth=2;" vertex="1" parent="1">
          <mxGeometry x="670" y="700" width="600" height="380" as="geometry" />
        </mxCell>
        <mxCell id="B_Zu465-rlCwCi7KC1ga-25" value="Step 1:" style="text;align=center;verticalAlign=middle;rounded=0;whiteSpace=wrap;html=1;fontFamily=Times New Roman;fontSize=18;fontStyle=0" vertex="1" parent="1">
          <mxGeometry x="690" y="110" width="70" height="55" as="geometry" />
        </mxCell>
        <mxCell id="B_Zu465-rlCwCi7KC1ga-26" value="&lt;font face=&quot;Times New Roman&quot; style=&quot;font-size: 20px;&quot;&gt;Question&lt;/font&gt;" style="rounded=1;whiteSpace=wrap;html=1;arcSize=50;strokeWidth=2;fillColor=default;strokeColor=#6c8ebf;" vertex="1" parent="1">
          <mxGeometry x="870" y="27" width="200" height="26" as="geometry" />
        </mxCell>
        <mxCell id="B_Zu465-rlCwCi7KC1ga-27" value="&lt;div style=&quot;&quot;&gt;&lt;span style=&quot;background-color: initial;&quot;&gt;&lt;font style=&quot;font-size: 20px;&quot;&gt;GPT-4o Response&lt;/font&gt;&lt;/span&gt;&lt;/div&gt;" style="rounded=1;whiteSpace=wrap;html=1;arcSize=50;fontFamily=Times New Roman;fontSize=23;align=center;strokeWidth=2;fillColor=default;strokeColor=#82b366;" vertex="1" parent="1">
          <mxGeometry x="870" y="687" width="200" height="26" as="geometry" />
        </mxCell>
        <mxCell id="B_Zu465-rlCwCi7KC1ga-28" value="Step 6:" style="text;align=center;verticalAlign=middle;rounded=0;whiteSpace=wrap;html=1;fontFamily=Times New Roman;fontSize=18;fontStyle=0" vertex="1" parent="1">
          <mxGeometry x="690" y="385" width="70" height="55" as="geometry" />
        </mxCell>
        <mxCell id="B_Zu465-rlCwCi7KC1ga-29" value="Step 5:" style="text;align=center;verticalAlign=middle;rounded=0;whiteSpace=wrap;html=1;fontFamily=Times New Roman;fontSize=18;fontStyle=0" vertex="1" parent="1">
          <mxGeometry x="690" y="330" width="70" height="55" as="geometry" />
        </mxCell>
        <mxCell id="B_Zu465-rlCwCi7KC1ga-30" value="Step 4:" style="text;align=center;verticalAlign=middle;rounded=0;whiteSpace=wrap;html=1;fontFamily=Times New Roman;fontSize=18;fontStyle=0" vertex="1" parent="1">
          <mxGeometry x="690" y="275" width="70" height="55" as="geometry" />
        </mxCell>
        <mxCell id="B_Zu465-rlCwCi7KC1ga-31" value="Step 3:" style="text;align=center;verticalAlign=middle;rounded=0;whiteSpace=wrap;html=1;fontFamily=Times New Roman;fontSize=18;fontStyle=0" vertex="1" parent="1">
          <mxGeometry x="690" y="220" width="70" height="55" as="geometry" />
        </mxCell>
        <mxCell id="B_Zu465-rlCwCi7KC1ga-32" value="Step 2:" style="text;align=center;verticalAlign=middle;rounded=0;whiteSpace=wrap;html=1;fontFamily=Times New Roman;fontSize=18;fontStyle=0" vertex="1" parent="1">
          <mxGeometry x="690" y="165" width="70" height="55" as="geometry" />
        </mxCell>
        <mxCell id="B_Zu465-rlCwCi7KC1ga-33" value="&lt;div style=&quot;font-size: 18px;&quot;&gt;&lt;div&gt;&lt;font face=&quot;Times New Roman&quot;&gt;This derivation is correct. Here&#39;s a breakdown of why:&lt;/font&gt;&lt;/div&gt;&lt;div&gt;&lt;font face=&quot;bUsjey62FLjx2DzNffp2&quot;&gt;&lt;b&gt;Steps 1 to 3&lt;/b&gt;: You simplified \(\frac{5}{\csc (\csc^{-1}(...))}\) correctly, transitioning into the logarithmic form involving \(\ln(\frac{x}{-5})\). The transformation from division into multiplication by \(\frac{-1}{5}\) is also accurate.&lt;/font&gt;&lt;/div&gt;&lt;div&gt;&lt;font face=&quot;bUsjey62FLjx2DzNffp2&quot; style=&quot;font-size: 18px;&quot;&gt;&lt;b&gt;Step 4&lt;/b&gt;: The transition from \(\csc (\csc^{-1}(...))\) to \(\sec (\csc^{-1}(...))\) is valid because \(\csc^{-1}(y) = \frac{1}{\sin(y)} \), and switching to \(\sec\) correctly follows trigonometric identities here.&lt;/font&gt;&lt;/div&gt;&lt;div&gt;&lt;font face=&quot;bUsjey62FLjx2DzNffp2&quot;&gt;&lt;b&gt;Step 5&lt;/b&gt;: The step \(\sec(\csc^{-1}(...)) = \sqrt[]{1-(\ln(...))^{2}} \) is a valid simplification using the Pythagorean identity, \(\sec(x) = \sqrt[]{1-\sin^{2}(x)} \).&lt;/font&gt;&lt;/div&gt;&lt;div&gt;&lt;font face=&quot;bUsjey62FLjx2DzNffp2&quot;&gt;&lt;b&gt;Step 6&lt;/b&gt;: Finally, the expression \(\sqrt[]{1-(\ln(...))^{2}}\) is accurate, representing the correct simplified form of the secant expression.&lt;/font&gt;&lt;/div&gt;&lt;div&gt;&lt;font face=&quot;bUsjey62FLjx2DzNffp2&quot;&gt;The derivation logically follows through to the final result:&lt;/font&gt;&lt;/div&gt;&lt;div&gt;&lt;font face=&quot;bUsjey62FLjx2DzNffp2&quot;&gt;\(5\sqrt[]{1-(\ln (\frac{-1}{5}x ))^{2}}&amp;nbsp; \)&lt;/font&gt;&lt;/div&gt;&lt;div&gt;&lt;font face=&quot;bUsjey62FLjx2DzNffp2&quot;&gt;This matches the correct sequence of operations and transformations.&lt;/font&gt;&lt;/div&gt;&lt;/div&gt;" style="text;html=1;align=left;verticalAlign=middle;whiteSpace=wrap;rounded=0;fontFamily=Times New Roman;" vertex="1" parent="1">
          <mxGeometry x="690" y="720" width="560" height="350" as="geometry" />
        </mxCell>
      </root>
    </mxGraphModel>
  </diagram>
</mxfile>
